<?xml version="1.0" standalone="no"?>
<!DOCTYPE svg PUBLIC "-//W3C//DTD SVG 20010904//EN"
 "http://www.w3.org/TR/2001/REC-SVG-20010904/DTD/svg10.dtd">
<svg version="1.0" xmlns="http://www.w3.org/2000/svg"
 width="512.000000pt" height="512.000000pt" viewBox="0 0 512.000000 512.000000"
 preserveAspectRatio="xMidYMid meet">
<metadata>
Created by potrace 1.11, written by Peter Selinger 2001-2013
</metadata>
<g transform="translate(0.000000,512.000000) scale(0.100000,-0.100000)"
fill="#000000" stroke="none">
<path d="M1893 5105 c-158 -43 -265 -153 -316 -326 -14 -46 -277 -1020 -584
-2164 l-558 -2080 1 -100 c0 -81 4 -111 23 -158 44 -112 139 -205 256 -249 59
-23 66 -23 477 -23 l416 0 26 24 c51 48 40 142 -20 170 -15 7 -92 11 -199 11
-96 0 -175 2 -175 4 0 2 9 25 21 51 11 25 78 261 148 523 l128 477 677 3 c642
2 677 1 672 -15 -3 -10 -49 -180 -103 -378 -86 -319 -97 -369 -96 -440 1 -167
88 -309 236 -384 95 -49 131 -52 556 -49 l393 3 29 33 c41 46 40 99 -2 141
l-31 31 -184 0 c-101 0 -184 4 -184 9 0 5 9 28 19 52 11 24 277 1005 592 2179
447 1669 573 2152 577 2212 13 221 -142 413 -365 451 -178 31 -378 -74 -455
-239 -21 -46 -118 -373 -118 -400 0 -2 -304 -4 -676 -4 l-676 0 6 23 c3 12 13
57 22 99 47 231 -91 453 -321 513 -72 18 -143 18 -212 0z m193 -216 c37 -13
96 -72 115 -114 25 -54 24 -113 -3 -216 l-22 -86 -90 -5 c-113 -6 -176 -31
-239 -96 -65 -66 -91 -129 -91 -223 -1 -68 3 -83 34 -145 38 -75 105 -135 173
-156 20 -6 37 -16 37 -22 0 -6 -38 -150 -84 -321 l-83 -310 -91 -6 c-65 -5
-106 -14 -145 -32 -152 -69 -225 -247 -166 -402 28 -76 104 -154 174 -180 28
-10 51 -19 53 -21 2 -1 -140 -546 -164 -625 -3 -13 -23 -17 -93 -21 -197 -12
-319 -122 -329 -299 -6 -100 14 -162 75 -229 44 -49 125 -100 158 -100 11 0
15 -6 11 -17 -3 -10 -60 -220 -126 -468 -77 -286 -129 -462 -143 -483 -76
-113 -252 -128 -344 -30 -31 33 -63 107 -63 148 0 27 1053 3989 1145 4307 38
132 173 200 301 152z m2274 -9 c19 -10 45 -29 57 -42 31 -33 63 -107 63 -148
0 -27 -1053 -3989 -1145 -4307 -29 -101 -115 -167 -215 -165 -68 0 -97 11
-145 54 -48 41 -74 99 -75 161 0 33 112 467 341 1320 187 700 446 1666 575
2147 175 654 240 883 259 910 63 90 185 120 285 70z m-676 -647 c-4 -16 -17
-64 -29 -108 l-21 -80 -802 0 -801 0 -30 29 c-57 55 -34 153 42 175 18 5 379
10 840 10 l807 1 -6 -27z m-114 -410 c1 -5 -36 -149 -82 -320 l-83 -313 -677
0 -676 0 24 88 c13 48 52 192 86 320 l61 232 674 0 c370 0 673 -3 673 -7z
m-230 -861 c0 -14 -24 -112 -46 -184 -5 -17 -51 -18 -791 -18 -713 0 -788 2
-820 17 -41 19 -67 70 -58 113 8 37 49 78 83 83 15 2 388 5 830 6 761 1 802 0
802 -17z m-110 -419 c0 -5 -38 -147 -84 -318 l-83 -310 -677 -3 c-642 -2 -677
-1 -672 15 5 16 130 483 157 586 l10 37 674 0 c371 0 675 -3 675 -7z m-230
-854 c0 -6 -12 -55 -27 -110 l-26 -99 -784 0 c-859 0 -836 -2 -867 59 -35 68
-6 128 74 154 32 11 1630 7 1630 -4z"/>
<path d="M1841 196 c-81 -45 -57 -175 36 -192 74 -14 144 55 128 127 -14 64
-102 99 -164 65z"/>
</g>
</svg>
